<?xml version="1.0" encoding="utf-8"?>
<!-- Generator: Adobe Illustrator 16.0.0, SVG Export Plug-In . SVG Version: 6.00 Build 0)  -->
<!DOCTYPE svg PUBLIC "-//W3C//DTD SVG 1.1//EN" "http://www.w3.org/Graphics/SVG/1.1/DTD/svg11.dtd">
<svg version="1.1" id="Capa_1" xmlns="http://www.w3.org/2000/svg" xmlns:xlink="http://www.w3.org/1999/xlink" x="0px" y="0px"
	 width="512px" height="512px" viewBox="0 0 512 512" enable-background="new 0 0 512 512" xml:space="preserve">
<g>
	<g>
		<path id="WhatsApp" fill="#FFFFFF" d="M512,249.407c0,137.745-112.521,249.406-251.347,249.406
			c-44.072,0-85.476-11.264-121.498-31.032L0,512l45.368-133.813C22.483,340.605,9.301,296.528,9.301,249.407
			C9.301,111.662,121.833,0,260.654,0C399.49,0,512,111.662,512,249.407z M260.654,39.719
			c-116.531,0-211.319,94.066-211.319,209.688c0,45.881,14.956,88.371,40.255,122.937l-26.402,77.875l81.209-25.811
			c33.365,21.908,73.335,34.686,116.264,34.686c116.514,0,211.319-94.055,211.319-209.676S377.179,39.719,260.654,39.719z
			 M387.578,306.847c-1.553-2.543-5.655-4.079-11.811-7.134c-6.166-3.055-36.466-17.852-42.098-19.883
			c-5.648-2.037-9.768-3.061-13.869,3.055c-4.102,6.121-15.912,19.883-19.513,23.962c-3.596,4.091-7.186,4.603-13.353,1.542
			c-6.155-3.056-26.004-9.518-49.538-30.339c-18.313-16.202-30.681-36.204-34.276-42.331c-3.589-6.116-0.375-9.421,2.703-12.465
			c2.775-2.742,6.166-7.14,9.244-10.706c3.089-3.573,4.113-6.116,6.155-10.2c2.065-4.079,1.035-7.646-0.512-10.713
			c-1.536-3.055-13.87-33.138-19.001-45.38c-5.132-12.231-10.258-10.194-13.858-10.194c-3.59,0-7.703-0.512-11.811-0.512
			s-10.786,1.53-16.435,7.646c-5.644,6.121-21.556,20.912-21.556,50.989c0,30.083,22.067,59.147,25.156,63.221
			c3.078,4.073,42.61,67.812,105.245,92.291c62.64,24.468,62.64,16.305,73.938,15.28c11.286-1.018,36.442-14.785,41.597-29.053
			C389.109,321.633,389.109,309.396,387.578,306.847z"/>
	</g>
</g>
</svg>
