<?xml version="1.0" standalone="no"?>
<!DOCTYPE svg PUBLIC "-//W3C//DTD SVG 20010904//EN"
 "http://www.w3.org/TR/2001/REC-SVG-20010904/DTD/svg10.dtd">
<svg version="1.0" xmlns="http://www.w3.org/2000/svg"
 width="116.000000pt" height="116.000000pt" viewBox="0 0 116.000000 116.000000"
 preserveAspectRatio="xMidYMid meet">
<metadata>
Created by potrace 1.11, written by Peter Selinger 2001-2013
</metadata>
<g transform="translate(0.000000,116.000000) scale(0.100000,-0.100000)"
fill="#000000" stroke="none">
<path d="M260 1052 c-15 -5 -53 -37 -122 -105 -141 -140 -134 -372 16 -519 27
-26 49 -59 56 -85 12 -40 13 -41 32 -23 25 23 77 16 98 -13 8 -12 31 -50 50
-85 58 -106 112 -119 169 -40 17 24 35 49 41 56 22 25 53 12 105 -44 45 -49
55 -55 81 -51 70 11 106 60 106 145 0 31 -1 89 -2 128 -1 54 3 79 15 98 10 14
13 26 9 26 -11 0 32 40 66 63 33 21 138 38 144 23 3 -8 5 -8 5 0 3 36 -119
111 -266 166 -35 12 -63 27 -63 31 0 5 -4 5 -10 2 -14 -9 -59 24 -75 55 -21
40 -74 94 -135 136 l-55 38 -125 2 c-69 1 -132 -1 -140 -4z"/>
</g>
</svg>
